<?xml version="1.0" encoding="utf-8"?>
<!DOCTYPE svg PUBLIC "-//W3C//DTD SVG 1.1//EN" "http://www.w3.org/Graphics/SVG/1.1/DTD/svg11.dtd">
<svg version="1.1" xmlns="http://www.w3.org/2000/svg" xmlns:xlink="http://www.w3.org/1999/xlink" x="0px" y="0px" width="100px"
	 height="100px" viewBox="0 0 100 100" enable-background="new 0 0 100 100" xml:space="preserve">
<g id="Layer_1" display="none">
	<path display="inline" fill="#005A9E" d="M51.31,43.405c-0.118,0.77-0.658,2.338-1.101,2.915c-0.528,0.691-1.903,2.137-2.784,2.158
		c-0.823,0.02-2.169-1.267-2.679-1.914c-0.546-0.693-1.185-2.399-1.322-3.271c-0.202-1.28-0.104-5.183-0.104-5.183h8.142
		C51.462,38.11,51.509,42.096,51.31,43.405z"/>
</g>
<g id="Layer_2" display="none">
	<polygon display="inline" fill="#FFFFFF" points="56.243,42.822 48.714,42.825 48.714,42.824 47.51,44.676 45.289,39.114 
		44.843,39.797 44.845,39.801 39.36,48.233 39.4,48.333 39.356,48.401 39.704,49.276 45.118,40.952 47.322,46.469 47.476,46.233 
		47.477,46.238 49.074,43.781 56.242,43.78 	"/>
</g>
<g id="Layer_3">
	<g>
		<path fill="#005A9E" d="M28.113,21.177L28.1,21.144l3.838-5.887l19.141,47.925l10.375-15.958l0.009,0.011l22.89-0.008
			c1.095-14.078,0.783-40.625,0.783-40.625H14.973c0,0-0.506,20.398,0.092,34.634L28.113,21.177z"/>
		<path fill="#005A9E" d="M64.56,55.469l-13.763,21.18l-0.013-0.044l-1.325,2.03l-18.99-47.541L16.222,52.999
			c1.641,7.852,6.665,20.898,11.041,26.458c4.392,5.571,15.994,16.663,23.083,16.496c7.582-0.188,19.439-12.65,23.993-18.598
			c3.265-4.27,7.136-14.788,8.819-21.89L64.56,55.469z"/>
	</g>
</g>
</svg>
